<svg width="1000" height="725" xmlns="http://www.w3.org/2000/svg">
<g>
        <rect width="180" height="60" x="400" y="145" fill="WhiteSmoke" stroke="Gray" strokeWidth="2" rx="2" ry="2"/>
        <text x="410" y="165" font-family="Arial" font-size="10" fill="black">payment_history</text>
        <text x="410" y="185" font-family="Arial" font-size="10" fill="black"> Threshold Value - 0.8</text>
    </g>
    

    <g>
        <path d="M 900 245 L 80 245" fill="none" stroke="black"/>
        <path d="M 490 245 L 490 205" fill="none" stroke="black" />
        <path d="M 900 285 L 900 245" fill="none" stroke="black" />
        <path d="M 80 285 L 80 245" fill="none" stroke="black"/>
    </g>
    
<g>
        <rect width="180" height="60" x="700.0" y="290" fill="WhiteSmoke" stroke="Gray" strokeWidth="2" rx="2" ry="2"/>
        <text x="710.0" y="310" font-family="Arial" font-size="10" fill="black">credit_utilization</text>
        <text x="710.0" y="330" font-family="Arial" font-size="10" fill="black"> Threshold Value - 0.3</text>
    </g>
    

    <g>
        <path d="M 1000.0 390 L 580.0 390" fill="none" stroke="black"/>
        <path d="M 790.0 390 L 790.0 350" fill="none" stroke="black" />
        <path d="M 1000.0 430 L 1000.0 390" fill="none" stroke="black" />
        <path d="M 580.0 430 L 580.0 390" fill="none" stroke="black"/>
    </g>
    
<g>
        <rect width="180" height="60" x="100.0" y="290" fill="WhiteSmoke" stroke="Gray" strokeWidth="2" rx="2" ry="2"/>
        <text x="110.0" y="310" font-family="Arial" font-size="10" fill="black">recent_credit_inquiries</text>
        <text x="110.0" y="330" font-family="Arial" font-size="10" fill="black"> Threshold Value - 2.0</text>
    </g>
    

    <g>
        <path d="M 400.0 390 L -220.0 390" fill="none" stroke="black"/>
        <path d="M 190.0 390 L 190.0 350" fill="none" stroke="black" />
        <path d="M 400.0 430 L 400.0 390" fill="none" stroke="black" />
        <path d="M -220.0 430 L -220.0 390" fill="none" stroke="black"/>
    </g>
    
<g>
        <circle r="25" cx="1000.0" cy="460" fill="WhiteSmoke" stroke="Gray" stroke-width="1"/>
        <text x="1013.0" y="465" font-family="Arial" font-size="10" fill="black">Score - 600.0</text>
    </g>
    
<g>
        <circle r="25" cx="400.0" cy="460" fill="WhiteSmoke" stroke="Gray" stroke-width="1"/>
        <text x="413.0" y="465" font-family="Arial" font-size="10" fill="black">Score - 650.0</text>
    </g>
    
<g>
        <circle r="25" cx="400.0" cy="460" fill="WhiteSmoke" stroke="Gray" stroke-width="1"/>
        <text x="413.0" y="465" font-family="Arial" font-size="10" fill="black">Score - 700.0</text>
    </g>
    
<g>
        <rect width="180" height="60" x="-200.0" y="435" fill="WhiteSmoke" stroke="Gray" strokeWidth="2" rx="2" ry="2"/>
        <text x="-190.0" y="455" font-family="Arial" font-size="10" fill="black">income_level</text>
        <text x="-190.0" y="475" font-family="Arial" font-size="10" fill="black"> Threshold Value - 50000.0</text>
    </g>
    

    <g>
        <path d="M 100.0 535 L -320.0 535" fill="none" stroke="black"/>
        <path d="M -110.0 535 L -110.0 495" fill="none" stroke="black" />
        <path d="M 100.0 575 L 100.0 535" fill="none" stroke="black" />
        <path d="M -320.0 575 L -320.0 535" fill="none" stroke="black"/>
    </g>
    
<g>
        <circle r="25" cx="100.0" cy="605" fill="WhiteSmoke" stroke="Gray" stroke-width="1"/>
        <text x="113.0" y="610" font-family="Arial" font-size="10" fill="black">Score - 750.0</text>
    </g>
    
<g>
        <circle r="25" cx="-500.0" cy="605" fill="WhiteSmoke" stroke="Gray" stroke-width="1"/>
        <text x="-487.0" y="610" font-family="Arial" font-size="10" fill="black">Score - 800.0</text>
    </g>
    
</svg>